<?xml version="1.0" encoding="UTF-8"?>
<svg xmlns="http://www.w3.org/2000/svg" aria-hidden="true" style="position:absolute;width:0;height:0;overflow:hidden">
  <symbol id="home" viewBox="0 0 24 24" fill="none" stroke-linecap="round" stroke-linejoin="round">
    <g transform="translate(2.1 2.1)" stroke="#fff" stroke-width="2.15">    <rect x="1.1" y="1.1" width="8.6" height="8.6" rx="2.1" fill="none"/>
    <rect x="11.8" y="1.1" width="8.6" height="8.6" rx="2.1" fill="none"/>
    <rect x="1.1" y="11.8" width="8.6" height="8.6" rx="2.1" fill="none"/>
    <rect x="11.8" y="11.8" width="8.6" height="8.6" rx="2.1" fill="none"/>
    </g>
    <g stroke="currentColor" stroke-width="2">    <rect x="1.1" y="1.1" width="8.6" height="8.6" rx="2.1" fill="none"/>
    <rect x="11.8" y="1.1" width="8.6" height="8.6" rx="2.1" fill="none"/>
    <rect x="1.1" y="11.8" width="8.6" height="8.6" rx="2.1" fill="none"/>
    <rect x="11.8" y="11.8" width="8.6" height="8.6" rx="2.1" fill="none"/>
    </g>
  </symbol>
  <symbol id="contacts" viewBox="0 0 24 24" fill="none" stroke-linecap="round" stroke-linejoin="round">
    <g transform="translate(2.1 2.1)" stroke="#fff" stroke-width="2.15">    <circle cx="7.6" cy="5.9" r="3.5" fill="none"/>
    <path d="M1.7 19.8v-1.15c0-3.2 2.6-5.6 5.9-5.6s5.9 2.4 5.9 5.6v1.15" fill="none"/>
    <circle cx="15.5" cy="7" r="2.6" fill="none"/>
    <path d="M20.9 19.8v-.95c0-2.4-1.95-4.25-4.45-4.25-.8 0-1.5.18-2.15.5" fill="none"/>
    </g>
    <g stroke="currentColor" stroke-width="2">    <circle cx="7.6" cy="5.9" r="3.5" fill="none"/>
    <path d="M1.7 19.8v-1.15c0-3.2 2.6-5.6 5.9-5.6s5.9 2.4 5.9 5.6v1.15" fill="none"/>
    <circle cx="15.5" cy="7" r="2.6" fill="none"/>
    <path d="M20.9 19.8v-.95c0-2.4-1.95-4.25-4.45-4.25-.8 0-1.5.18-2.15.5" fill="none"/>
    </g>
  </symbol>
  <symbol id="find" viewBox="0 0 24 24" fill="none" stroke-linecap="round" stroke-linejoin="round">
    <g transform="translate(2.1 2.1)" stroke="#fff" stroke-width="2.15">    <circle cx="9.6" cy="9.6" r="7.5" fill="none"/>
    <path d="m15.2 15.2 5 5" fill="none"/>
    </g>
    <g stroke="currentColor" stroke-width="2">    <circle cx="9.6" cy="9.6" r="7.5" fill="none"/>
    <path d="m15.2 15.2 5 5" fill="none"/>
    </g>
  </symbol>
  <symbol id="groups" viewBox="0 0 24 24" fill="none" stroke-linecap="round" stroke-linejoin="round">
    <g transform="translate(2.1 2.1)" stroke="#fff" stroke-width="2.15">    <circle cx="4" cy="5.5" r="2.2" fill="none"/>
    <path d="M7.6 5.5h11.2" fill="none"/>
    <circle cx="4" cy="11.2" r="2.2" fill="none"/>
    <path d="M7.6 11.2h11.2" fill="none"/>
    <circle cx="4" cy="16.9" r="2.2" fill="none"/>
    <path d="M7.6 16.9h11.2" fill="none"/>
    </g>
    <g stroke="currentColor" stroke-width="2">    <circle cx="4" cy="5.5" r="2.2" fill="none"/>
    <path d="M7.6 5.5h11.2" fill="none"/>
    <circle cx="4" cy="11.2" r="2.2" fill="none"/>
    <path d="M7.6 11.2h11.2" fill="none"/>
    <circle cx="4" cy="16.9" r="2.2" fill="none"/>
    <path d="M7.6 16.9h11.2" fill="none"/>
    </g>
  </symbol>
  <symbol id="events" viewBox="0 0 24 24" fill="none" stroke-linecap="round" stroke-linejoin="round">
    <g transform="translate(2.1 2.1)" stroke="#fff" stroke-width="2.15">    <rect x="1.2" y="3.3" width="18.8" height="16.8" rx="2.3" fill="none"/>
    <path d="M1.2 8.4h18.8" fill="none"/>
    <path d="M6.4 1.3v3.3" fill="none"/>
    <path d="M14.8 1.3v3.3" fill="none"/>
    <path d="m6.8 14.2 2.5 2.5 5.4-5.4" fill="none"/>
    </g>
    <g stroke="currentColor" stroke-width="2">    <rect x="1.2" y="3.3" width="18.8" height="16.8" rx="2.3" fill="none"/>
    <path d="M1.2 8.4h18.8" fill="none"/>
    <path d="M6.4 1.3v3.3" fill="none"/>
    <path d="M14.8 1.3v3.3" fill="none"/>
    <path d="m6.8 14.2 2.5 2.5 5.4-5.4" fill="none"/>
    </g>
  </symbol>
  <symbol id="calls" viewBox="0 0 24 24" fill="none" stroke-linecap="round" stroke-linejoin="round">
    <g transform="translate(2.1 2.1)" stroke="#fff" stroke-width="2.15">    <rect x="4.4" y="1.2" width="13.2" height="18.8" rx="2.9" fill="none"/>
    <path d="M8.5 4.1h5" fill="none"/>
    </g>
    <g stroke="currentColor" stroke-width="2">    <rect x="4.4" y="1.2" width="13.2" height="18.8" rx="2.9" fill="none"/>
    <path d="M8.5 4.1h5" fill="none"/>
    </g>
  </symbol>
  <symbol id="communications" viewBox="0 0 24 24" fill="none" stroke-linecap="round" stroke-linejoin="round">
    <g transform="translate(2.1 2.1)" stroke="#fff" stroke-width="2.15">    <circle cx="10.9" cy="10.9" r="8.9" fill="none"/>
    <path d="M2.7 8.4h16.4" fill="none"/>
    <path d="M2.7 13.4h16.4" fill="none"/>
    <path d="M8.4 2.2c-2 3-2 14.4 0 17.4" fill="none"/>
    <path d="M13.4 2.2c2 3 2 14.4 0 17.4" fill="none"/>
    </g>
    <g stroke="currentColor" stroke-width="2">    <circle cx="10.9" cy="10.9" r="8.9" fill="none"/>
    <path d="M2.7 8.4h16.4" fill="none"/>
    <path d="M2.7 13.4h16.4" fill="none"/>
    <path d="M8.4 2.2c-2 3-2 14.4 0 17.4" fill="none"/>
    <path d="M13.4 2.2c2 3 2 14.4 0 17.4" fill="none"/>
    </g>
  </symbol>
  <symbol id="email" viewBox="0 0 24 24" fill="none" stroke-linecap="round" stroke-linejoin="round">
    <g transform="translate(2.1 2.1)" stroke="#fff" stroke-width="2.15">    <rect x="1.2" y="3.5" width="18.8" height="14.8" rx="2.3" fill="none"/>
    <path d="m2.3 6.4 7.1 4.7c.7.46 1.6.46 2.3 0l7.3-4.7" fill="none"/>
    </g>
    <g stroke="currentColor" stroke-width="2">    <rect x="1.2" y="3.5" width="18.8" height="14.8" rx="2.3" fill="none"/>
    <path d="m2.3 6.4 7.1 4.7c.7.46 1.6.46 2.3 0l7.3-4.7" fill="none"/>
    </g>
  </symbol>
  <symbol id="sms" viewBox="0 0 24 24" fill="none" stroke-linecap="round" stroke-linejoin="round">
    <g transform="translate(2.1 2.1)" stroke="#fff" stroke-width="2.15">    <rect x="1.3" y="1.6" width="18.6" height="14" rx="3.6" fill="none"/>
    <path d="M6.6 15.6 3.4 19.8 8 16.1" fill="none"/>
    </g>
    <g stroke="currentColor" stroke-width="2">    <rect x="1.3" y="1.6" width="18.6" height="14" rx="3.6" fill="none"/>
    <path d="M6.6 15.6 3.4 19.8 8 16.1" fill="none"/>
    </g>
  </symbol>
  <symbol id="mail" viewBox="0 0 24 24" fill="none" stroke-linecap="round" stroke-linejoin="round">
    <g transform="translate(2.1 2.1)" stroke="#fff" stroke-width="2.15">    <rect x="1.2" y="3.9" width="18.8" height="13.6" rx="2.1" fill="none"/>
    <rect x="13.1" y="6" width="4.8" height="3.6" rx="0.6" fill="none"/>
    <path d="M3.9 12.8h7.2" fill="none"/>
    <path d="M3.9 15.6h4.8" fill="none"/>
    </g>
    <g stroke="currentColor" stroke-width="2">    <rect x="1.2" y="3.9" width="18.8" height="13.6" rx="2.1" fill="none"/>
    <rect x="13.1" y="6" width="4.8" height="3.6" rx="0.6" fill="none"/>
    <path d="M3.9 12.8h7.2" fill="none"/>
    <path d="M3.9 15.6h4.8" fill="none"/>
    </g>
  </symbol>
  <symbol id="financials" viewBox="0 0 24 24" fill="none" stroke-linecap="round" stroke-linejoin="round">
    <g transform="translate(2.1 2.1)" stroke="#fff" stroke-width="2.15">    <path d="M10.9 1.3v18.8" fill="none"/>
    <path d="M17.2 4.5H7.4c-2.1 0-3.6 1.55-3.6 3.25 0 1.85 1.5 3 3.75 3h4.55c2.25 0 3.75 1.2 3.75 3.2 0 2-1.65 3.45-4 3.45H5.1" fill="none"/>
    </g>
    <g stroke="currentColor" stroke-width="2">    <path d="M10.9 1.3v18.8" fill="none"/>
    <path d="M17.2 4.5H7.4c-2.1 0-3.6 1.55-3.6 3.25 0 1.85 1.5 3 3.75 3h4.55c2.25 0 3.75 1.2 3.75 3.2 0 2-1.65 3.45-4 3.45H5.1" fill="none"/>
    </g>
  </symbol>
  <symbol id="donations" viewBox="0 0 24 24" fill="none" stroke-linecap="round" stroke-linejoin="round">
    <g transform="translate(2.1 2.1)" stroke="#fff" stroke-width="2.15">    <rect x="1.2" y="4.5" width="18.8" height="12.4" rx="2.2" fill="none"/>
    <circle cx="10.9" cy="10.7" r="3.2" fill="none"/>
    </g>
    <g stroke="currentColor" stroke-width="2">    <rect x="1.2" y="4.5" width="18.8" height="12.4" rx="2.2" fill="none"/>
    <circle cx="10.9" cy="10.7" r="3.2" fill="none"/>
    </g>
  </symbol>
  <symbol id="pledges" viewBox="0 0 24 24" fill="none" stroke-linecap="round" stroke-linejoin="round">
    <g transform="translate(2.1 2.1)" stroke="#fff" stroke-width="2.15">    <rect x="3.2" y="1.2" width="15.4" height="18.8" rx="2.2" fill="none"/>
    <path d="m6.9 12 2.8 2.8 5.7-5.8" fill="none"/>
    </g>
    <g stroke="currentColor" stroke-width="2">    <rect x="3.2" y="1.2" width="15.4" height="18.8" rx="2.2" fill="none"/>
    <path d="m6.9 12 2.8 2.8 5.7-5.8" fill="none"/>
    </g>
  </symbol>
  <symbol id="campaigns" viewBox="0 0 24 24" fill="none" stroke-linecap="round" stroke-linejoin="round">
    <g transform="translate(2.1 2.1)" stroke="#fff" stroke-width="2.15">    <path d="M10.9 1.2v1.8" fill="none"/>
    <path d="M7.3 7.8c0-2.3 1.6-4.1 3.6-4.1s3.6 1.8 3.6 4.1" fill="none"/>
    <path d="M3.2 9.2h15.4" fill="none"/>
    <path d="M3.2 9.2v7.4h15.4v-7.4" fill="none"/>
    <path d="M7.4 9.2v7.4M10.9 9.2v7.4M14.4 9.2v7.4" fill="none"/>
    <path d="M1.3 16.6h19" fill="none"/>
    <path d="M2.6 19.7h16.4" fill="none"/>
    </g>
    <g stroke="currentColor" stroke-width="2">    <path d="M10.9 1.2v1.8" fill="none"/>
    <path d="M7.3 7.8c0-2.3 1.6-4.1 3.6-4.1s3.6 1.8 3.6 4.1" fill="none"/>
    <path d="M3.2 9.2h15.4" fill="none"/>
    <path d="M3.2 9.2v7.4h15.4v-7.4" fill="none"/>
    <path d="M7.4 9.2v7.4M10.9 9.2v7.4M14.4 9.2v7.4" fill="none"/>
    <path d="M1.3 16.6h19" fill="none"/>
    <path d="M2.6 19.7h16.4" fill="none"/>
    </g>
  </symbol>
  <symbol id="data" viewBox="0 0 24 24" fill="none" stroke-linecap="round" stroke-linejoin="round">
    <g transform="translate(2.1 2.1)" stroke="#fff" stroke-width="2.15">    <rect x="4.1" y="1.2" width="14.2" height="6.9" rx="1.8" fill="none"/>
    <rect x="2" y="7.2" width="14.2" height="6.9" rx="1.8" fill="none"/>
    <rect x="4.1" y="13.2" width="14.2" height="6.9" rx="1.8" fill="none"/>
    </g>
    <g stroke="currentColor" stroke-width="2">    <rect x="4.1" y="1.2" width="14.2" height="6.9" rx="1.8" fill="none"/>
    <rect x="2" y="7.2" width="14.2" height="6.9" rx="1.8" fill="none"/>
    <rect x="4.1" y="13.2" width="14.2" height="6.9" rx="1.8" fill="none"/>
    </g>
  </symbol>
  <symbol id="admin" viewBox="0 0 24 24" fill="none" stroke-linecap="round" stroke-linejoin="round">
    <g transform="translate(2.1 2.1)" stroke="#fff" stroke-width="2.15">    <path d="M1.3 6.3h18.8" fill="none"/>
    <circle cx="7.2" cy="6.3" r="2.5" fill="none"/>
    <path d="M1.3 15.3h18.8" fill="none"/>
    <circle cx="14.4" cy="15.3" r="2.5" fill="none"/>
    </g>
    <g stroke="currentColor" stroke-width="2">    <path d="M1.3 6.3h18.8" fill="none"/>
    <circle cx="7.2" cy="6.3" r="2.5" fill="none"/>
    <path d="M1.3 15.3h18.8" fill="none"/>
    <circle cx="14.4" cy="15.3" r="2.5" fill="none"/>
    </g>
  </symbol>
  <symbol id="reports" viewBox="0 0 24 24" fill="none" stroke-linecap="round" stroke-linejoin="round">
    <g transform="translate(2.1 2.1)" stroke="#fff" stroke-width="2.15">    <path d="M4.2 19.6V8.8" fill="none"/>
    <path d="M10.9 19.6V2.4" fill="none"/>
    <path d="M17.6 19.6V6.1" fill="none"/>
    </g>
    <g stroke="currentColor" stroke-width="2">    <path d="M4.2 19.6V8.8" fill="none"/>
    <path d="M10.9 19.6V2.4" fill="none"/>
    <path d="M17.6 19.6V6.1" fill="none"/>
    </g>
  </symbol>
  <symbol id="calendar" viewBox="0 0 24 24" fill="none" stroke-linecap="round" stroke-linejoin="round">
    <g transform="translate(2.1 2.1)" stroke="#fff" stroke-width="2.15">    <rect x="1.2" y="3.3" width="18.8" height="16.8" rx="2.3" fill="none"/>
    <path d="M1.2 8.4h18.8" fill="none"/>
    <path d="M6.4 1.3v3.3" fill="none"/>
    <path d="M14.8 1.3v3.3" fill="none"/>
    <rect x="7.4" y="11.2" width="6.2" height="4.6" rx="1" fill="none"/>
    </g>
    <g stroke="currentColor" stroke-width="2">    <rect x="1.2" y="3.3" width="18.8" height="16.8" rx="2.3" fill="none"/>
    <path d="M1.2 8.4h18.8" fill="none"/>
    <path d="M6.4 1.3v3.3" fill="none"/>
    <path d="M14.8 1.3v3.3" fill="none"/>
    <rect x="7.4" y="11.2" width="6.2" height="4.6" rx="1" fill="none"/>
    </g>
  </symbol>
</svg>
